# Blender 4.5.1 LTS
# www.blender.org
mtllib boat1.mtl
o Sphere
v 4.971835 1.648155 -2.524209
v 4.566426 0.362491 -2.197136
v 3.706146 -0.544528 -1.579661
v 2.291249 -0.974558 -0.824244
v 5.839522 1.648155 0.010649
v 5.266187 0.192564 0.010649
v 4.049567 -0.736567 0.010649
v 2.245308 -1.068451 0.010649
v 4.971835 1.648155 2.545507
v 4.566426 0.362491 2.218434
v 3.706146 -0.544528 1.600958
v 2.291249 -0.974558 0.845541
v 1.172920 1.648155 3.137555
v 1.172920 0.532417 2.788884
v 1.172920 -0.352488 2.087290
v 0.960600 -0.880664 1.146950
v -3.171961 1.648155 2.545507
v -2.766553 0.362491 2.218434
v -1.906273 -0.544528 1.600958
v -0.855352 -0.974558 0.845541
v -5.677545 1.648155 0.010649
v -5.104211 0.192564 0.010649
v -3.887591 -0.736567 0.010649
v -2.204658 -1.068451 0.010649
v -3.171961 1.648155 -2.524209
v -2.766552 0.362491 -2.197136
v -1.906273 -0.544528 -1.579661
v -0.855352 -0.974558 -0.824244
v -0.024006 -1.084738 0.010649
v 1.172920 1.648155 -3.116257
v 1.172920 0.532417 -2.767586
v 1.172920 -0.352488 -2.065992
v 0.960600 -0.880664 -1.125652
v 2.311268 -0.710762 -1.512442
v 3.249728 1.044324 -2.869194
v 1.199127 -1.004631 -0.710707
v 2.922439 -0.012244 -2.354157
v 3.264247 -0.914964 -0.660443
v 5.484332 0.911681 -1.350145
v 1.535294 -1.084828 -0.296616
v 4.694187 -0.289854 -1.076341
v 1.535294 -1.084828 0.317913
v 4.694187 -0.289854 1.097638
v 3.264247 -0.914964 0.681740
v 5.484332 0.911681 1.371443
v 2.922439 -0.012244 2.375455
v 2.311268 -0.710762 1.533739
v 3.249727 1.044324 2.890491
v 1.199127 -1.004631 0.732004
v -0.082016 -0.710762 1.533739
v -0.972134 1.044324 2.890491
v 0.032032 -1.004631 0.732004
v -0.644845 -0.012244 2.375455
v -4.708143 0.911681 1.371443
v -1.282323 -1.084829 0.317913
v -3.917999 -0.289854 1.097638
v -2.513651 -0.914964 0.681740
v -1.282323 -1.084828 -0.296616
v -3.917999 -0.289854 -1.076340
v -2.513652 -0.914964 -0.660443
v -4.708144 0.911681 -1.350145
v -0.082015 -0.710762 -1.512442
v -0.972134 1.044324 -2.869194
v 0.032032 -1.004631 -0.710707
v -0.644845 -0.012244 -2.354157
v 5.618678 1.677038 -1.393839
v 5.618678 1.677038 1.415137
v 3.326316 1.669184 2.937918
v -1.051426 1.668677 2.937623
v -4.862535 1.673706 1.378605
v -4.862535 1.673706 -1.357308
v -1.051426 1.668677 -2.916325
v 3.326316 1.669184 -2.916621
vn -0.0000 -0.8719 -0.4897
vn 0.1030 -0.9350 -0.3393
vn -0.0001 0.9946 0.1035
vn -0.0000 -0.2983 -0.9545
vn 0.5099 -0.3596 -0.7815
vn 0.0218 0.9990 0.0380
vn -0.0000 -0.9843 -0.1768
vn -0.0000 -0.6213 -0.7836
vn 0.0089 -0.9428 -0.3332
vn 0.3257 -0.7234 -0.6088
vn 0.0748 -0.9914 -0.1074
vn 0.9304 -0.1815 0.3185
vn -0.0187 0.9986 0.0490
vn 0.1809 -0.9835 -0.0000
vn 0.1297 0.9916 -0.0000
vn 0.9304 -0.3665 -0.0000
vn 0.3476 -0.9190 0.1860
vn 0.3476 -0.9190 -0.1860
vn 0.6069 -0.7947 -0.0000
vn -0.5668 -0.5186 0.6401
vn -0.0000 -0.9843 0.1768
vn 0.0748 -0.9914 0.1074
vn 0.3257 -0.7234 0.6088
vn 0.0089 -0.9428 0.3332
vn 0.1030 -0.9350 0.3393
vn 0.7688 -0.5711 0.2876
vn 0.5099 -0.3596 0.7815
vn 0.0578 -0.7885 0.6124
vn -0.0000 -0.6213 0.7836
vn -0.0084 -0.9393 0.3431
vn -0.0000 -0.8719 0.4897
vn 0.1240 -0.4656 0.8763
vn -0.0000 -0.2983 0.9545
vn -0.0313 0.9995 -0.0000
vn 0.0146 -0.9893 0.1451
vn -0.7033 -0.1490 0.6951
vn -0.0001 0.9946 -0.1035
vn -0.0703 -0.9058 0.4178
vn -0.3451 -0.3321 0.8778
vn -0.2590 -0.8662 0.4273
vn -0.0075 -1.0000 -0.0000
vn -0.0487 -0.7844 0.6184
vn -0.2155 -0.6809 0.6999
vn 0.1533 -0.0935 -0.9837
vn -0.9304 -0.3665 -0.0000
vn -0.2590 -0.8662 -0.4273
vn -0.0690 -0.9729 0.2208
vn 0.0218 0.9990 -0.0380
vn -0.1344 -0.0916 -0.9867
vn -0.6069 -0.7947 -0.0000
vn 0.0578 -0.7885 -0.6124
vn -0.1935 -0.9811 -0.0000
vn 0.0146 -0.9893 -0.1451
vn -0.0690 -0.9729 -0.2208
vn 0.1240 -0.4656 -0.8763
vn -0.2155 -0.6809 -0.6999
vn -0.0084 -0.9393 -0.3431
vn -0.0187 0.9986 -0.0490
vn -0.0703 -0.9058 -0.4178
vn -0.5668 -0.5186 -0.6401
vn -0.3451 -0.3321 -0.8778
vn -0.0169 -0.9841 -0.1768
vn -0.0169 -0.9841 0.1768
vn 0.0072 -1.0000 -0.0000
vn -0.0487 -0.7844 -0.6184
vn 0.1533 -0.0935 0.9837
vn -0.1075 -0.4623 0.8802
vn -0.1344 -0.0916 0.9867
vn -0.1075 -0.4623 -0.8802
vn -0.7033 -0.1490 -0.6951
vn 0.9304 -0.1815 -0.3185
vn 0.7688 -0.5711 -0.2876
vt 0.750000 0.125000
vt 0.812500 0.188079
vt 0.750000 0.250000
vt 0.687500 0.188079
vt 0.625000 0.250000
vt 0.562500 0.188079
vt 0.625000 0.125000
vt 0.312500 0.500000
vt 0.187500 0.500000
vt 0.250000 0.500000
vt 0.750000 0.375000
vt 0.812500 0.437500
vt 0.750000 0.500000
vt 0.687500 0.437500
vt 0.625000 0.500000
vt 0.562500 0.437500
vt 0.625000 0.375000
vt 0.437500 0.500000
vt 0.375000 0.500000
vt 0.812500 0.000000
vt 0.812500 0.084201
vt 0.687500 0.084201
vt 0.812500 0.312500
vt 0.687500 0.312500
vt 0.562500 0.312500
vt 0.500000 0.125000
vt 0.562500 0.084201
vt 0.500000 0.500000
vt 0.437500 0.437500
vt 0.062500 0.500000
vt 0.125000 0.500000
vt 0.500000 0.250000
vt 0.437500 0.188079
vt 0.562500 0.500000
vt 0.500000 0.375000
vt 0.437500 0.312500
vt 0.375000 0.250000
vt 0.062500 0.437500
vt 0.000000 0.375000
vt 0.062500 0.312500
vt 0.125000 0.375000
vt 0.312500 0.084201
vt 0.250000 0.125000
vt 0.187500 0.084201
vt 0.312500 0.000000
vt 0.375000 0.125000
vt 0.437500 0.084201
vt 0.375000 0.375000
vt 0.312500 0.312500
vt 0.312500 0.188079
vt 0.312500 0.437500
vt 0.250000 0.250000
vt 0.250000 0.375000
vt 0.187500 0.312500
vt 0.187500 0.188079
vt 0.125000 0.125000
vt 0.187500 0.437500
vt 0.937500 0.500000
vt 0.000000 0.500000
vt 0.062500 0.084201
vt 0.187500 0.000000
vt 0.812500 0.500000
vt 0.687500 0.500000
vt 0.125000 0.250000
vt 0.062500 0.188079
vt 0.000000 0.250000
vt 1.000000 0.125000
vt 0.937500 0.084201
vt 0.062500 0.000000
vt 1.000000 0.500000
vt 0.937500 0.437500
vt 0.937500 0.312500
vt 0.875000 0.250000
vt 0.937500 0.188079
vt 1.000000 0.250000
vt 0.000000 0.125000
vt 0.875000 0.500000
vt 1.000000 0.375000
vt 0.875000 0.125000
vt 0.937500 0.000000
vt 0.875000 0.375000
vt 0.687500 0.000000
vt 0.437500 0.000000
vt 0.562500 0.000000
s 0
usemtl Material
f 33/1/1 62/2/1 32/3/1 34/4/1
f 34/4/2 3/5/2 38/6/2 4/7/2
f 68/8/3 69/9/3 13/10/3
f 31/11/4 63/12/4 30/13/4 35/14/4
f 35/14/5 1/15/5 39/16/5 2/17/5
f 67/18/6 68/8/6 9/19/6
f 29/20/7 64/21/7 33/1/7 36/22/7
f 32/3/8 65/23/8 31/11/8 37/24/8
f 34/4/9 4/7/9 36/22/9 33/1/9
f 37/24/10 2/17/10 41/25/10 3/5/10
f 38/6/11 8/26/11 40/27/11 4/7/11
f 5/28/12 67/18/12 9/19/12 45/29/12
f 69/9/13 70/30/13 17/31/13
f 38/6/14 7/32/14 44/33/14 8/26/14
f 66/34/15 67/18/15 5/28/15
f 39/16/16 5/28/16 45/29/16 6/35/16
f 43/36/17 11/37/17 44/33/17 7/32/17
f 7/32/18 38/6/18 3/5/18 41/25/18
f 41/25/19 6/35/19 43/36/19 7/32/19
f 54/38/20 22/39/20 56/40/20 18/41/20
f 49/42/21 16/43/21 52/44/21 29/45/21
f 12/46/22 42/47/22 8/26/22 44/33/22
f 43/36/23 10/48/23 46/49/23 11/37/23
f 47/50/24 16/43/24 49/42/24 12/46/24
f 44/33/25 11/37/25 47/50/25 12/46/25
f 10/48/26 43/36/26 6/35/26 45/29/26
f 45/29/27 9/19/27 48/51/27 10/48/27
f 46/49/28 15/52/28 47/50/28 11/37/28
f 46/49/29 14/53/29 53/54/29 15/52/29
f 50/55/30 20/56/30 52/44/30 16/43/30
f 47/50/31 15/52/31 50/55/31 16/43/31
f 14/53/32 46/49/32 10/48/32 48/51/32
f 48/51/33 13/10/33 51/57/33 14/53/33
f 70/30/34 71/58/34 21/59/34
f 52/44/35 20/56/35 55/60/35 29/61/35
f 54/38/36 17/31/36 70/30/36 21/59/36
f 72/62/37 73/63/37 30/13/37
f 50/55/38 19/64/38 57/65/38 20/56/38
f 51/57/39 17/31/39 54/38/39 18/41/39
f 56/40/40 23/66/40 57/65/40 19/64/40
f 55/60/41 24/67/41 58/68/41 29/69/41
f 19/64/42 50/55/42 15/52/42 53/54/42
f 53/54/43 18/41/43 56/40/43 19/64/43
f 30/13/44 73/63/44 1/15/44 35/14/44
f 54/38/45 21/70/45 61/71/45 22/39/45
f 59/72/46 27/73/46 60/74/46 23/75/46
f 24/76/47 55/60/47 20/56/47 57/65/47
f 1/15/48 73/63/48 66/34/48
f 25/77/49 72/62/49 30/13/49 63/12/49
f 56/40/50 22/78/50 59/72/50 23/66/50
f 3/5/51 34/4/51 32/3/51 37/24/51
f 57/65/52 23/75/52 60/74/52 24/76/52
f 58/68/53 28/79/53 64/21/53 29/80/53
f 28/79/54 58/68/54 24/67/54 60/74/54
f 35/14/55 2/17/55 37/24/55 31/11/55
f 59/72/56 26/81/56 65/23/56 27/73/56
f 62/2/57 33/1/57 64/21/57 28/79/57
f 71/58/58 72/62/58 25/77/58
f 60/74/59 27/73/59 62/2/59 28/79/59
f 26/81/60 59/72/60 22/78/60 61/71/60
f 61/71/61 25/77/61 63/12/61 26/81/61
f 36/22/62 4/7/62 40/27/62 29/82/62
f 42/47/63 12/46/63 49/42/63 29/83/63
f 40/27/64 8/26/64 42/47/64 29/84/64
f 32/3/65 62/2/65 27/73/65 65/23/65
f 9/19/66 68/8/66 13/10/66 48/51/66
f 51/57/67 18/41/67 53/54/67 14/53/67
f 51/57/68 13/10/68 69/9/68 17/31/68
f 63/12/69 31/11/69 65/23/69 26/81/69
f 21/70/70 71/58/70 25/77/70 61/71/70
f 39/16/71 1/15/71 66/34/71 5/28/71
f 39/16/72 6/35/72 41/25/72 2/17/72
o Plane
v -2.977926 1.162331 2.167608
v 4.891012 1.162331 1.941019
v -3.151340 1.162331 -1.995738
v 4.856825 1.162331 -1.970742
v -4.985164 1.162331 0.010649
v 0.310532 1.162331 2.873897
v 5.539112 1.162331 0.010649
v 0.310532 1.162331 -2.757237
v 0.310532 1.162331 0.010649
v -4.789848 1.162331 1.259804
v 3.220732 1.162331 2.771634
v 5.474388 1.162331 -1.317080
v -1.715068 1.162331 -2.608968
v -4.893247 1.162331 -0.963550
v -1.715068 1.162331 2.598408
v 5.461508 1.162331 1.326478
v 3.133827 1.162331 -2.758008
v 0.310532 1.162331 -0.864428
v 0.310532 1.162331 0.885726
v -1.715068 1.162331 0.010649
v 2.336133 1.162331 0.010649
v 2.336133 1.162331 0.885726
v -1.715068 1.162331 0.885726
v -1.715068 1.162331 -0.864428
v 2.336133 1.162331 -0.864428
vn -0.0000 1.0000 -0.0000
vt 0.750000 0.750000
vt 1.000000 0.750000
vt 1.000000 1.000000
vt 0.750000 1.000000
vt 0.250000 0.750000
vt 0.500000 0.750000
vt 0.500000 1.000000
vt 0.250000 1.000000
vt 0.250000 0.250000
vt 0.500000 0.250000
vt 0.500000 0.500000
vt 0.250000 0.500000
vt 0.750000 0.250000
vt 1.000000 0.250000
vt 1.000000 0.500000
vt 0.750000 0.500000
vt 0.500000 0.000000
vt 0.750000 0.000000
vt 1.000000 0.000000
vt 0.000000 0.250000
vt 0.000000 0.500000
vt 0.000000 0.000000
vt 0.250000 0.000000
vt 0.000000 0.750000
vt 0.000000 1.000000
s 0
usemtl Material.001
f 98/85/73 85/86/73 77/87/73 90/88/73
f 97/89/73 91/90/73 81/91/73 86/92/73
f 96/93/73 92/94/73 82/95/73 93/96/73
f 95/97/73 89/98/73 80/99/73 94/100/73
f 92/94/73 95/97/73 94/100/73 82/95/73
f 79/101/73 84/102/73 95/97/73 92/94/73
f 84/102/73 75/103/73 89/98/73 95/97/73
f 83/104/73 96/93/73 93/96/73 78/105/73
f 74/106/73 88/107/73 96/93/73 83/104/73
f 88/107/73 79/101/73 92/94/73 96/93/73
f 87/108/73 97/89/73 86/92/73 76/109/73
f 78/105/73 93/96/73 97/89/73 87/108/73
f 93/96/73 82/95/73 91/90/73 97/89/73
f 91/90/73 98/85/73 90/88/73 81/91/73
f 82/95/73 94/100/73 98/85/73 91/90/73
f 94/100/73 80/99/73 85/86/73 98/85/73
o Sail2
v 1.615189 7.546390 -2.904604
v 1.615190 3.204392 -2.904604
v 1.647890 7.546390 2.834929
v 1.647890 3.204392 2.834929
v 1.631387 7.546390 -0.061721
v 1.537754 5.375391 -2.904163
v 1.631540 3.204392 -0.034837
v 1.550025 5.375391 2.835487
v 1.020285 5.375391 -0.031355
v 1.623365 7.416125 -1.469721
v 1.548482 4.289892 -2.904224
v 1.639715 3.302135 1.400046
v 1.589710 6.460890 2.835261
v 1.639715 7.413718 1.400046
v 1.563718 6.460890 -2.904311
v 1.623365 3.306207 -1.469721
v 1.548183 4.289892 2.835498
v 1.028460 5.375391 1.403529
v 1.012110 5.375391 -1.466238
v 1.178258 6.460890 -0.032255
v 1.106765 4.289892 -0.031847
v 1.098589 4.289892 -1.466731
v 1.170083 6.460890 -1.467138
v 1.186433 6.460890 1.402629
v 1.114940 4.289892 1.403036
vn -0.9485 -0.2859 0.1363
vn -0.9481 0.0865 0.3061
vn -0.9896 0.1440 0.0056
vn -0.8918 -0.4523 -0.0110
vn -0.9968 -0.0794 0.0057
vn -0.9461 -0.0423 -0.3210
vn -0.9525 -0.2721 -0.1368
vn -0.9139 0.4057 -0.0134
vn -0.9639 0.2383 -0.1186
vn -0.9494 0.0803 -0.3036
vn -0.9621 0.2416 0.1269
vn -0.9133 0.4065 0.0238
vn -0.9480 -0.0370 0.3160
vn -0.8920 -0.4516 0.0205
vt 0.750000 0.750000
vt 1.000000 0.750000
vt 1.000000 1.000000
vt 0.750000 1.000000
vt 0.250000 0.750000
vt 0.500000 0.750000
vt 0.500000 1.000000
vt 0.250000 1.000000
vt 0.250000 0.250000
vt 0.500000 0.250000
vt 0.500000 0.500000
vt 0.250000 0.500000
vt 0.750000 0.250000
vt 1.000000 0.250000
vt 1.000000 0.500000
vt 0.750000 0.500000
vt 0.500000 0.000000
vt 0.750000 0.000000
vt 1.000000 0.000000
vt 0.000000 0.250000
vt 0.000000 0.500000
vt 0.000000 0.000000
vt 0.250000 0.000000
vt 0.000000 0.750000
vt 0.000000 1.000000
s 0
usemtl Material.004
f 123/110/74 110/111/74 102/112/74 115/113/74
f 122/114/75 116/115/75 106/116/75 111/117/75
f 121/118/76 117/119/76 107/120/76 118/121/76
f 120/122/77 114/123/77 105/124/77 119/125/77
f 117/119/78 120/122/78 119/125/78 107/120/78
f 104/126/79 109/127/79 120/122/79 117/119/79
f 109/127/80 100/128/80 114/123/80 120/122/80
f 108/129/81 121/118/81 118/121/81 103/130/81
f 99/131/82 113/132/82 121/118/82 108/129/82
f 113/132/83 104/126/83 117/119/83 121/118/83
f 112/133/84 122/114/84 111/117/84 101/134/84
f 103/130/85 118/121/85 122/114/85 112/133/85
f 118/121/76 107/120/76 116/115/76 122/114/76
f 116/115/86 123/110/86 115/113/86 106/116/86
f 107/120/78 119/125/78 123/110/78 116/115/78
f 119/125/87 105/124/87 110/111/87 123/110/87
o Cylinder.001
v 1.880848 8.063617 0.078867
v 1.656065 1.156574 0.002836
v 1.764229 8.063617 0.021978
v 1.787461 8.063617 -0.082425
v 1.703118 1.156574 -0.134594
v 1.933954 1.156574 -0.186544
v 1.848704 8.063617 -0.088442
v 2.028119 1.156574 0.086525
v 1.927066 8.063617 -0.056141
v 1.755050 1.156574 0.180690
vn -0.8737 0.0123 0.4863
vn -0.9602 0.0148 -0.2791
vn 0.9453 0.0071 -0.3260
vn 0.3260 0.0080 0.9453
vn -0.4383 0.0212 0.8986
vn -0.1947 0.0107 -0.9808
vn 0.3810 0.0178 -0.9244
vn 0.9459 0.0205 0.3238
vn -0.0000 1.0000 -0.0000
vn -0.0000 -1.0000 -0.0000
vt 0.824145 1.000000
vt 0.753903 0.500000
vt 0.919683 0.500000
vt 0.630190 0.500000
vt 0.619810 1.000000
vt 0.324145 1.000000
vt 0.175855 0.500000
vt 0.425855 0.500000
vt 0.080317 1.000000
vt 0.011857 0.500000
vt 0.988143 1.000000
vt 0.496097 1.000000
vt 0.407645 0.081624
vt 0.443735 0.347296
vt 0.152704 0.443735
vt 0.056265 0.152704
vt 0.244152 0.012924
vt 0.987076 0.255848
vt 0.918376 0.092355
vt 0.652704 0.056265
vt 0.556265 0.347296
vt 0.847296 0.443735
s 0
usemtl Material.005
f 126/135/88 125/136/88 133/137/88
f 128/138/89 125/136/89 126/135/89 127/139/89
f 132/140/90 131/141/90 129/142/90
f 124/143/91 133/144/91 131/141/91
f 124/145/92 126/135/92 133/137/92
f 129/142/93 128/138/93 127/139/93 130/146/93
f 130/146/94 132/140/94 129/142/94
f 132/140/95 124/143/95 131/141/95
f 127/147/96 126/148/96 124/149/96 132/150/96 130/151/96
f 125/152/97 128/153/97 129/154/97 131/155/97 133/156/97
o Cube.015
v 1.775272 3.186172 -2.937757
v 1.775272 3.250774 -2.937757
v 1.808718 3.186172 2.932501
v 1.808718 3.250774 2.932501
v 1.638001 3.186172 -2.936975
v 1.638001 3.250774 -2.936975
v 1.671446 3.186172 2.933283
v 1.671446 3.250774 2.933283
vn 1.0000 -0.0000 -0.0057
vn 0.0057 -0.0000 1.0000
vn -1.0000 -0.0000 0.0057
vn -0.0057 -0.0000 -1.0000
vn -0.0000 -1.0000 -0.0000
vn -0.0000 1.0000 -0.0000
vt 0.375000 0.000000
vt 0.625000 0.000000
vt 0.625000 0.250000
vt 0.375000 0.250000
vt 0.625000 0.500000
vt 0.375000 0.500000
vt 0.625000 0.750000
vt 0.375000 0.750000
vt 0.625000 1.000000
vt 0.375000 1.000000
vt 0.125000 0.500000
vt 0.125000 0.750000
vt 0.875000 0.500000
vt 0.875000 0.750000
s 0
usemtl Material.243
f 134/157/98 135/158/98 137/159/98 136/160/98
f 136/160/99 137/159/99 141/161/99 140/162/99
f 140/162/100 141/161/100 139/163/100 138/164/100
f 138/164/101 139/163/101 135/165/101 134/166/101
f 136/167/102 140/162/102 138/164/102 134/168/102
f 141/161/103 137/169/103 135/170/103 139/163/103
o Cube.014
v 1.775272 7.474572 -2.937757
v 1.775272 7.539173 -2.937757
v 1.808718 7.474572 2.932501
v 1.808718 7.539173 2.932501
v 1.638001 7.474572 -2.936975
v 1.638001 7.539173 -2.936975
v 1.671446 7.474572 2.933283
v 1.671446 7.539173 2.933283
vn 1.0000 -0.0000 -0.0057
vn 0.0057 -0.0000 1.0000
vn -1.0000 -0.0000 0.0057
vn -0.0057 -0.0000 -1.0000
vn -0.0000 -1.0000 -0.0000
vn -0.0000 1.0000 -0.0000
vt 0.375000 0.000000
vt 0.625000 0.000000
vt 0.625000 0.250000
vt 0.375000 0.250000
vt 0.625000 0.500000
vt 0.375000 0.500000
vt 0.625000 0.750000
vt 0.375000 0.750000
vt 0.625000 1.000000
vt 0.375000 1.000000
vt 0.125000 0.500000
vt 0.125000 0.750000
vt 0.875000 0.500000
vt 0.875000 0.750000
s 0
usemtl Material.244
f 142/171/104 143/172/104 145/173/104 144/174/104
f 144/174/105 145/173/105 149/175/105 148/176/105
f 148/176/106 149/175/106 147/177/106 146/178/106
f 146/178/107 147/177/107 143/179/107 142/180/107
f 144/181/108 148/176/108 146/178/108 142/182/108
f 149/175/109 145/183/109 143/184/109 147/177/109
