# Blender 4.5.1 LTS
# www.blender.org
mtllib flag.mtl
o FlagTall_1
v -0.038703 0.000000 -0.196404
v -0.173788 0.000000 -0.094075
v -0.178007 0.000000 0.075341
v -0.048183 0.000000 0.184268
v 0.117923 0.000000 0.150683
v 0.195231 0.000000 -0.000124
v 0.125526 0.000000 -0.154593
v -0.173788 23.489763 -0.094075
v -0.038703 23.489763 -0.196404
v -0.178007 23.489763 0.075341
v -0.048183 23.489763 0.184268
v 0.117923 23.489763 0.150683
v 0.195231 23.489763 -0.000124
v 0.125526 23.489763 -0.154593
v -0.173794 27.107252 -0.094073
v -0.038709 27.107252 -0.196403
v -0.178013 27.107252 0.075342
v -0.048189 27.107252 0.184269
v 0.117917 27.107252 0.150684
v 0.195225 27.107252 -0.000123
v 0.125520 27.107252 -0.154591
v -0.328442 27.226002 -0.173351
v -0.073148 27.226002 -0.366742
v -0.336416 27.226002 0.146823
v -0.091065 27.226002 0.352682
v 0.222855 27.226002 0.289210
v 0.368958 27.226002 0.004203
v 0.237224 27.226002 -0.287723
v -0.328440 27.514423 -0.173352
v -0.073146 27.514423 -0.366743
v -0.336414 27.514423 0.146822
v -0.091063 27.514423 0.352681
v 0.222857 27.514423 0.289210
v 0.368960 27.514423 0.004203
v 0.237226 27.514423 -0.287723
v -0.257500 27.589273 -0.136986
v -0.057348 27.589273 -0.288606
v -0.263752 27.589273 0.114033
v -0.071395 27.589273 0.275429
v 0.174722 27.589273 0.225666
v 0.289267 27.589273 0.002218
v 0.185987 27.589273 -0.226655
v -0.081978 27.370213 -0.410419
v 0.265866 27.370213 -0.321859
v 0.413505 27.370213 0.005313
v 0.249763 27.370213 0.324729
v -0.102058 27.370213 0.395864
v -0.377031 27.370213 0.165151
v -0.368094 27.370213 -0.193679
v -0.110898 23.616068 -0.061835
v -0.024698 23.616068 -0.127133
v -0.113590 23.616068 0.046272
v -0.030748 23.616068 0.115780
v 0.075247 23.616068 0.094349
v 0.124579 23.616068 -0.001884
v 0.080099 23.616068 -0.100452
v -0.110902 26.980951 -0.061834
v -0.024702 26.980951 -0.127132
v -0.113594 26.980951 0.046272
v -0.030752 26.980951 0.115781
v 0.075243 26.980951 0.094350
v 0.110712 26.980951 -0.001883
v 0.080095 26.980951 -0.100451
vn -0.0000 -1.0000 -0.0000
vn -0.5392 0.4502 -0.7118
vn 0.2467 -0.0000 -0.9691
vn 0.8899 -0.0000 0.4562
vn -0.6428 -0.0000 0.7661
vn -0.6038 -0.0000 -0.7971
vn 0.9115 -0.0000 -0.4113
vn 0.1982 -0.0000 0.9802
vn -0.9997 -0.0000 -0.0249
vn 0.5508 -0.7968 -0.2486
vn -0.5392 -0.4502 -0.7118
vn 0.2203 0.4502 -0.8653
vn 0.2203 -0.4502 -0.8653
vn 0.8139 0.4502 -0.3673
vn 0.8129 -0.4850 -0.3223
vn 0.7946 0.4502 0.4074
vn 0.2377 0.2682 -0.9336
vn 0.1198 -0.7968 0.5923
vn -0.6041 -0.7968 -0.0150
vn 0.1491 -0.7968 -0.5856
vn 0.5377 -0.7968 0.2757
vn -0.3884 -0.7968 0.4629
vn -0.3649 -0.7968 -0.4817
vn 0.1430 0.6924 0.7072
vn 0.8573 0.2682 0.4395
vn -0.6192 0.2682 0.7380
vn -0.5817 0.2682 -0.7679
vn 0.8781 0.2682 -0.3962
vn 0.1909 0.2682 0.9443
vn -0.9631 0.2682 -0.0240
vn -0.0000 1.0000 -0.0000
vn -0.7213 0.6924 -0.0180
vn 0.1780 0.6924 -0.6992
vn 0.6421 0.6924 0.3292
vn -0.4638 0.6924 0.5528
vn -0.4357 0.6924 -0.5752
vn 0.6577 0.6924 -0.2968
vn -0.9631 -0.2682 -0.0240
vn 0.1909 -0.2682 0.9443
vn 0.8781 -0.2682 -0.3962
vn -0.5817 -0.2682 -0.7679
vn -0.6192 -0.2682 0.7380
vn 0.8573 -0.2682 0.4395
vn 0.2377 -0.2682 -0.9336
vn 0.9151 0.0019 0.4032
vn 0.9345 0.0019 -0.3560
vn -0.8927 -0.4502 -0.0222
vn -0.8927 0.4502 -0.0222
vn -0.5740 -0.4502 0.6840
vn -0.5739 0.4502 0.6841
vn 0.1770 -0.4502 0.8752
vn 0.1770 0.4502 0.8752
vn 0.7959 -0.4843 0.3633
vt 0.439664 0.925494
vt 0.437015 0.925064
vt 0.435836 0.923321
vt 0.437015 0.921578
vt 0.439664 0.921147
vt 0.441788 0.922354
vt 0.441788 0.924288
vt 0.426743 0.938733
vt 0.423801 0.938733
vt 0.438779 0.940940
vt 0.438779 0.938799
vt 0.414774 0.938799
vt 0.414774 0.940940
vt 0.423735 0.921147
vt 0.420792 0.921147
vt 0.420792 0.938733
vt 0.423735 0.938733
vt 0.438779 0.943146
vt 0.438779 0.941006
vt 0.414774 0.941006
vt 0.414774 0.943146
vt 0.426743 0.921147
vt 0.423801 0.921147
vt 0.438779 0.945352
vt 0.438779 0.943212
vt 0.414774 0.943212
vt 0.414774 0.945352
vt 0.429752 0.921147
vt 0.426810 0.921147
vt 0.426810 0.938733
vt 0.429752 0.938733
vt 0.438779 0.947559
vt 0.438779 0.945419
vt 0.414774 0.945419
vt 0.414774 0.947559
vt 0.317297 0.079008
vt 0.314354 0.079008
vt 0.314354 0.081148
vt 0.317297 0.081148
vt 0.311345 0.072389
vt 0.314288 0.072389
vt 0.314354 0.074595
vt 0.317297 0.074595
vt 0.314288 0.079008
vt 0.311345 0.079008
vt 0.311345 0.081148
vt 0.314288 0.081148
vt 0.317297 0.076802
vt 0.314354 0.076802
vt 0.314354 0.078942
vt 0.317297 0.078942
vt 0.314288 0.076802
vt 0.311345 0.076802
vt 0.311345 0.078942
vt 0.314288 0.078942
vt 0.314354 0.076735
vt 0.317297 0.076735
vt 0.314288 0.074595
vt 0.311345 0.074595
vt 0.311345 0.076735
vt 0.314288 0.076735
vt 0.317297 0.072389
vt 0.314354 0.072389
vt 0.314354 0.074529
vt 0.317297 0.074529
vt 0.311345 0.074529
vt 0.314288 0.074529
vt 0.317297 0.070182
vt 0.314354 0.070182
vt 0.314354 0.072322
vt 0.317297 0.072322
vt 0.314288 0.070182
vt 0.311345 0.070182
vt 0.311345 0.072322
vt 0.314288 0.072322
vt 0.317297 0.067976
vt 0.314354 0.067976
vt 0.314354 0.070116
vt 0.317297 0.070116
vt 0.314288 0.067976
vt 0.311345 0.067976
vt 0.311345 0.070116
vt 0.314288 0.070116
vt 0.317297 0.065769
vt 0.314354 0.065769
vt 0.314354 0.067909
vt 0.317297 0.067909
vt 0.314288 0.065769
vt 0.311345 0.065769
vt 0.311345 0.067909
vt 0.314288 0.067909
vt 0.317297 0.063563
vt 0.314354 0.063563
vt 0.314354 0.065703
vt 0.317297 0.065703
vt 0.306506 0.068406
vt 0.309155 0.067976
vt 0.311279 0.069182
vt 0.311279 0.071116
vt 0.309155 0.072322
vt 0.306506 0.071892
vt 0.305328 0.070149
vt 0.314288 0.063563
vt 0.311345 0.063563
vt 0.311345 0.065703
vt 0.314288 0.065703
vt 0.314288 0.083421
vt 0.311345 0.083421
vt 0.311345 0.085561
vt 0.314288 0.085561
vt 0.311279 0.083421
vt 0.308337 0.083421
vt 0.308337 0.085561
vt 0.311279 0.085561
vt 0.314288 0.081215
vt 0.311345 0.081215
vt 0.311345 0.083355
vt 0.314288 0.083355
vt 0.311279 0.081215
vt 0.308337 0.081215
vt 0.308337 0.083355
vt 0.311279 0.083355
vt 0.311279 0.079008
vt 0.308337 0.079008
vt 0.308337 0.081148
vt 0.311279 0.081148
vt 0.308270 0.079008
vt 0.305328 0.079008
vt 0.305328 0.081148
vt 0.308270 0.081148
vt 0.311279 0.076802
vt 0.308337 0.076802
vt 0.308337 0.078942
vt 0.311279 0.078942
vt 0.308270 0.076802
vt 0.305328 0.076802
vt 0.305328 0.078942
vt 0.308270 0.078942
vt 0.311279 0.074595
vt 0.308337 0.074595
vt 0.308337 0.076735
vt 0.311279 0.076735
vt 0.308270 0.074595
vt 0.305328 0.074595
vt 0.305328 0.076735
vt 0.308270 0.076735
vt 0.311279 0.072389
vt 0.308337 0.072389
vt 0.308337 0.074529
vt 0.311279 0.074529
vt 0.308270 0.072389
vt 0.305328 0.072389
vt 0.305328 0.074529
vt 0.308270 0.074529
vt 0.034884 0.794674
vt 0.031941 0.794674
vt 0.031941 0.812260
vt 0.034884 0.812260
vt 0.046919 0.794674
vt 0.043977 0.794674
vt 0.043977 0.812260
vt 0.046919 0.812260
vt 0.052937 0.823292
vt 0.052937 0.821152
vt 0.028932 0.821152
vt 0.028932 0.823292
vt 0.031875 0.794674
vt 0.028932 0.794674
vt 0.028932 0.812260
vt 0.031875 0.812260
vt 0.052937 0.825499
vt 0.052937 0.823359
vt 0.028932 0.823359
vt 0.028932 0.825499
vt 0.049928 0.794674
vt 0.046985 0.794674
vt 0.046985 0.812260
vt 0.049928 0.812260
vt 0.052937 0.827705
vt 0.052937 0.825565
vt 0.028932 0.825565
vt 0.028932 0.827705
s 0
usemtl color_palette
f 2/1/1 1/2/1 7/3/1 6/4/1 5/5/1 4/6/1 3/7/1
f 9/8/2 8/9/2 50/9/2 51/8/2
f 7/10/3 1/11/3 9/12/3 14/13/3
f 5/14/4 6/15/4 13/16/4 12/17/4
f 3/18/5 4/19/5 11/20/5 10/21/5
f 1/22/6 2/23/6 8/9/6 9/8/6
f 6/24/7 7/25/7 14/26/7 13/27/7
f 4/28/8 5/29/8 12/30/8 11/31/8
f 2/32/9 3/33/9 10/34/9 8/35/9
f 20/36/10 21/37/10 28/38/10 27/39/10
f 15/40/11 16/41/11 58/41/11 57/40/11
f 14/13/12 9/12/12 51/12/12 56/13/12
f 16/42/13 21/43/13 63/43/13 58/42/13
f 13/27/14 14/26/14 56/26/14 55/27/14
f 21/37/15 20/36/15 62/36/15 63/37/15
f 12/17/16 13/16/16 55/16/16 54/17/16
f 44/44/17 43/45/17 30/46/17 35/47/17
f 18/48/18 19/49/18 26/50/18 25/51/18
f 15/52/19 17/53/19 24/54/19 22/55/19
f 21/43/20 16/42/20 23/56/20 28/57/20
f 19/58/21 20/59/21 27/60/21 26/61/21
f 17/62/22 18/63/22 25/64/22 24/65/22
f 16/41/23 15/40/23 22/66/23 23/67/23
f 32/68/24 33/69/24 40/70/24 39/71/24
f 46/72/25 45/73/25 34/74/25 33/75/25
f 48/76/26 47/77/26 32/78/26 31/79/26
f 43/80/27 49/81/27 29/82/27 30/83/27
f 45/84/28 44/85/28 35/86/28 34/87/28
f 47/88/29 46/89/29 33/90/29 32/91/29
f 49/92/30 48/93/30 31/94/30 29/95/30
f 36/96/31 38/97/31 39/98/31 40/99/31 41/100/31 42/101/31 37/102/31
f 29/103/32 31/104/32 38/105/32 36/106/32
f 35/107/33 30/108/33 37/109/33 42/110/33
f 33/111/34 34/112/34 41/113/34 40/114/34
f 31/115/35 32/116/35 39/117/35 38/118/35
f 30/119/36 29/120/36 36/121/36 37/122/36
f 34/123/37 35/124/37 42/125/37 41/126/37
f 22/127/38 24/128/38 48/129/38 49/130/38
f 25/131/39 26/132/39 46/133/39 47/134/39
f 27/135/40 28/136/40 44/137/40 45/138/40
f 23/139/41 22/140/41 49/141/41 43/142/41
f 24/143/42 25/144/42 47/145/42 48/146/42
f 26/147/43 27/148/43 45/149/43 46/150/43
f 28/151/44 23/152/44 43/153/44 44/154/44
f 50/155/9 52/156/9 59/157/9 57/158/9
f 56/159/3 51/160/3 58/161/3 63/162/3
f 54/163/45 55/164/45 62/165/45 61/166/45
f 52/167/5 53/168/5 60/169/5 59/170/5
f 51/171/6 50/172/6 57/173/6 58/174/6
f 55/175/46 56/176/46 63/177/46 62/178/46
f 53/179/8 54/180/8 61/181/8 60/182/8
f 17/53/47 15/52/47 57/52/47 59/53/47
f 8/35/48 10/34/48 52/34/48 50/35/48
f 18/63/49 17/62/49 59/62/49 60/63/49
f 10/21/50 11/20/50 53/20/50 52/21/50
f 19/49/51 18/48/51 60/48/51 61/49/51
f 11/31/52 12/30/52 54/30/52 53/31/52
f 20/59/53 19/58/53 61/58/53 62/59/53
o FlagTall_0
v -0.000002 26.980951 -0.018307
v 0.000002 23.616068 -0.018307
v 0.000002 23.616068 0.015240
v -0.000002 26.980951 0.015240
v 5.168128 23.616068 0.015240
v 5.168124 26.980951 0.015240
v 5.168128 23.616068 -0.018307
v 5.168124 26.980951 -0.018307
v 4.593892 23.616068 -0.018307
v 4.019655 23.616068 -0.018307
v 3.445419 23.616068 -0.018307
v 2.871183 23.616068 -0.018307
v 2.296947 23.616068 -0.018307
v 1.722710 23.616068 -0.018307
v 1.148474 23.616068 -0.018307
v 0.574238 23.616068 -0.018307
v 4.593892 23.616068 0.015240
v 4.019655 23.616068 0.015240
v 3.445419 23.616068 0.015240
v 2.871183 23.616068 0.015240
v 2.296947 23.616068 0.015240
v 1.722710 23.616068 0.015240
v 1.148474 23.616068 0.015240
v 0.574238 23.616068 0.015240
v 0.574234 26.980951 0.015240
v 1.148471 26.980951 0.015240
v 1.722707 26.980951 0.015240
v 2.296943 26.980951 0.015240
v 2.871179 26.980951 0.015240
v 3.445415 26.980951 0.015240
v 4.019652 26.980951 0.015240
v 4.593888 26.980951 0.015240
v 0.574234 26.980951 -0.018307
v 1.148471 26.980951 -0.018307
v 1.722707 26.980951 -0.018307
v 2.296943 26.980951 -0.018307
v 2.871179 26.980951 -0.018307
v 3.445415 26.980951 -0.018307
v 4.019652 26.980951 -0.018307
v 4.593888 26.980951 -0.018307
v 5.168127 24.457289 -0.018307
v 5.168126 25.298510 -0.018307
v 5.168125 26.139730 -0.018307
v 0.000001 24.457289 -0.018307
v -0.000000 25.298510 -0.018307
v -0.000001 26.139730 -0.018307
v 0.000001 24.457289 0.015240
v -0.000000 25.298510 0.015240
v -0.000001 26.139730 0.015240
v 5.168127 24.457289 0.015240
v 5.168126 25.298510 0.015240
v 5.168125 26.139730 0.015240
v 0.574237 24.457289 0.015240
v 0.574236 25.298510 0.015240
v 0.574235 26.139730 0.015240
v 1.148473 24.457289 0.015240
v 1.148472 25.298510 0.015240
v 1.148471 26.139730 0.015240
v 1.722710 24.457289 0.015240
v 1.722709 25.298510 0.015240
v 1.722708 26.139730 0.015240
v 2.296946 24.457289 0.015240
v 2.296945 25.298510 0.015240
v 2.296944 26.139730 0.015240
v 2.871182 24.457289 0.015240
v 2.871181 25.298510 0.015240
v 2.871180 26.139730 0.015240
v 3.445418 24.457289 0.015240
v 3.445417 25.298510 0.015240
v 3.445416 26.139730 0.015240
v 4.019654 24.457289 0.015240
v 4.019653 25.298510 0.015240
v 4.019652 26.139730 0.015240
v 4.593891 24.457289 0.015240
v 4.593890 25.298510 0.015240
v 4.593889 26.139730 0.015240
v 0.574235 26.139730 -0.018307
v 0.574236 25.298510 -0.018307
v 0.574237 24.457289 -0.018307
v 1.148471 26.139730 -0.018307
v 1.148472 25.298510 -0.018307
v 1.148473 24.457289 -0.018307
v 1.722708 26.139730 -0.018307
v 1.722709 25.298510 -0.018307
v 1.722710 24.457289 -0.018307
v 2.296944 26.139730 -0.018307
v 2.296945 25.298510 -0.018307
v 2.296946 24.457289 -0.018307
v 2.871180 26.139730 -0.018307
v 2.871181 25.298510 -0.018307
v 2.871182 24.457289 -0.018307
v 3.445416 26.139730 -0.018307
v 3.445417 25.298510 -0.018307
v 3.445418 24.457289 -0.018307
v 4.019653 26.139730 -0.018307
v 4.019654 25.298510 -0.018307
v 4.019654 24.457289 -0.018307
v 4.593889 26.139730 -0.018307
v 4.593890 25.298510 -0.018307
v 4.593891 24.457289 -0.018307
vn -0.5774 0.5773 -0.5774
vn -0.5773 -0.5774 -0.5774
vn -0.5773 -0.5774 0.5774
vn -0.5774 0.5773 0.5774
vn 0.5774 -0.5774 0.5774
vn 0.5773 0.5774 0.5774
vn 0.5774 -0.5773 -0.5774
vn 0.5773 0.5774 -0.5774
vn -0.0000 -0.7071 -0.7071
vn -0.0000 -0.7071 0.7071
vn -0.0000 0.7071 0.7071
vn -0.0000 0.7071 -0.7071
vn 0.7071 -0.0000 -0.7071
vn -0.7071 -0.0000 -0.7071
vn -0.7071 -0.0000 0.7071
vn 0.7071 -0.0000 0.7071
vn -0.0000 -0.0000 1.0000
vn -0.0000 -0.0000 -1.0000
vt 0.291339 0.935526
vt 0.291339 0.994672
vt 0.326885 0.994672
vt 0.326885 0.935526
vt 0.326885 0.817234
vt 0.326885 0.758088
vt 0.042522 0.758088
vt 0.006977 0.758088
vt 0.006977 0.935526
vt 0.006977 0.994672
vt 0.291339 0.758088
vt 0.255794 0.758088
vt 0.220249 0.758088
vt 0.184703 0.758088
vt 0.149158 0.758088
vt 0.113613 0.758088
vt 0.078067 0.758088
vt 0.042522 0.994672
vt 0.078067 0.994672
vt 0.113613 0.994672
vt 0.149158 0.994672
vt 0.184703 0.994672
vt 0.220249 0.994672
vt 0.255794 0.994672
vt 0.042522 0.935526
vt 0.078067 0.935526
vt 0.113613 0.935526
vt 0.149158 0.935526
vt 0.184703 0.935526
vt 0.220249 0.935526
vt 0.255794 0.935526
vt 0.255794 0.817234
vt 0.291339 0.817234
vt 0.255794 0.876380
vt 0.291339 0.876380
vt 0.220249 0.817234
vt 0.220249 0.876380
vt 0.184703 0.817234
vt 0.184703 0.876380
vt 0.149158 0.817234
vt 0.149158 0.876380
vt 0.113613 0.817234
vt 0.113613 0.876380
vt 0.078067 0.817234
vt 0.078067 0.876380
vt 0.042522 0.817234
vt 0.042522 0.876380
vt 0.006977 0.817234
vt 0.006977 0.876380
vt 0.291339 0.876380
vt 0.255794 0.876380
vt 0.220249 0.817234
vt 0.220249 0.876380
vt 0.149158 0.817234
vt 0.149158 0.876380
vt 0.326885 0.876380
s 1
usemtl Flags_Palette
f 161/183/71 103/184/65 71/185/61 106/186/66
f 139/183/70 115/186/69 69/185/59 95/184/64
f 95/184/64 69/185/59 71/185/61 103/184/65
f 113/187/69 68/188/58 70/188/60 104/187/66
f 87/189/63 66/190/56 65/190/55 79/189/62
f 112/191/68 67/192/57 64/192/54 109/191/67
f 68/188/58 80/193/63 72/193/62 70/188/60
f 80/193/63 81/194/63 73/194/62 72/193/62
f 81/194/63 82/195/63 74/195/62 73/194/62
f 82/195/63 83/196/63 75/196/62 74/195/62
f 83/196/63 84/197/63 76/197/62 75/196/62
f 84/197/63 85/198/63 77/198/62 76/197/62
f 85/198/63 86/199/63 78/199/62 77/198/62
f 86/199/63 87/189/63 79/189/62 78/199/62
f 67/192/57 88/200/64 96/200/65 64/192/54
f 88/200/64 89/201/64 97/201/65 96/200/65
f 89/201/64 90/202/64 98/202/65 97/201/65
f 90/202/64 91/203/64 99/203/65 98/202/65
f 91/203/64 92/204/64 100/204/65 99/203/65
f 92/204/64 93/205/64 101/205/65 100/204/65
f 93/205/64 94/206/64 102/206/65 101/205/65
f 94/206/64 95/184/64 103/184/65 102/206/65
f 112/191/68 118/207/70 88/200/64 67/192/57
f 118/207/70 121/208/70 89/201/64 88/200/64
f 121/208/70 124/209/70 90/202/64 89/201/64
f 124/209/70 127/210/70 91/203/64 90/202/64
f 127/210/70 130/211/70 92/204/64 91/203/64
f 130/211/70 133/212/70 93/205/64 92/204/64
f 133/212/70 136/213/70 94/206/64 93/205/64
f 136/213/70 139/183/70 95/184/64 94/206/64
f 109/191/67 64/192/54 96/200/65 140/207/71
f 140/207/71 96/200/65 97/201/65 143/208/71
f 143/208/71 97/201/65 98/202/65 146/209/71
f 146/209/71 98/202/65 99/203/65 149/210/71
f 149/210/71 99/203/65 100/204/65 152/211/71
f 152/211/71 100/204/65 101/205/65 155/212/71
f 155/212/71 101/205/65 102/206/65 158/213/71
f 158/213/71 102/206/65 103/184/65 161/183/71
f 73/194/62 160/214/71 163/215/71 72/193/62
f 160/214/71 159/216/71 162/217/71 163/215/71
f 159/216/71 158/213/71 161/183/71 162/217/71
f 74/195/62 157/218/71 160/214/71 73/194/62
f 157/218/71 156/219/71 159/216/71 160/214/71
f 156/219/71 155/212/71 158/213/71 159/216/71
f 75/196/62 154/220/71 157/218/71 74/195/62
f 154/220/71 153/221/71 156/219/71 157/218/71
f 153/221/71 152/211/71 155/212/71 156/219/71
f 76/197/62 151/222/71 154/220/71 75/196/62
f 151/222/71 150/223/71 153/221/71 154/220/71
f 150/223/71 149/210/71 152/211/71 153/221/71
f 77/198/62 148/224/71 151/222/71 76/197/62
f 148/224/71 147/225/71 150/223/71 151/222/71
f 147/225/71 146/209/71 149/210/71 150/223/71
f 78/199/62 145/226/71 148/224/71 77/198/62
f 145/226/71 144/227/71 147/225/71 148/224/71
f 144/227/71 143/208/71 146/209/71 147/225/71
f 79/189/62 142/228/71 145/226/71 78/199/62
f 142/228/71 141/229/71 144/227/71 145/226/71
f 141/229/71 140/207/71 143/208/71 144/227/71
f 65/190/55 107/230/67 142/228/71 79/189/62
f 107/230/67 108/231/67 141/229/71 142/228/71
f 108/231/67 109/191/67 140/207/71 141/229/71
f 81/194/63 80/193/63 137/215/70 134/214/70
f 134/214/70 137/215/70 138/232/70 135/233/70
f 135/233/70 138/232/70 139/183/70 136/213/70
f 82/195/63 81/194/63 134/214/70 131/234/70
f 131/234/70 134/214/70 135/233/70 132/235/70
f 132/235/70 135/233/70 136/213/70 133/212/70
f 83/196/63 82/195/63 131/234/70 128/220/70
f 128/220/70 131/234/70 132/235/70 129/221/70
f 129/221/70 132/235/70 133/212/70 130/211/70
f 84/197/63 83/196/63 128/220/70 125/236/70
f 125/236/70 128/220/70 129/221/70 126/237/70
f 126/237/70 129/221/70 130/211/70 127/210/70
f 85/198/63 84/197/63 125/236/70 122/224/70
f 122/224/70 125/236/70 126/237/70 123/225/70
f 123/225/70 126/237/70 127/210/70 124/209/70
f 86/199/63 85/198/63 122/224/70 119/226/70
f 119/226/70 122/224/70 123/225/70 120/227/70
f 120/227/70 123/225/70 124/209/70 121/208/70
f 87/189/63 86/199/63 119/226/70 116/228/70
f 116/228/70 119/226/70 120/227/70 117/229/70
f 117/229/70 120/227/70 121/208/70 118/207/70
f 66/190/56 87/189/63 116/228/70 110/230/68
f 110/230/68 116/228/70 117/229/70 111/231/68
f 111/231/68 117/229/70 118/207/70 112/191/68
f 66/190/56 110/230/68 107/230/67 65/190/55
f 110/230/68 111/231/68 108/231/67 107/230/67
f 111/231/68 112/191/68 109/191/67 108/231/67
f 69/185/59 115/186/69 106/186/66 71/185/61
f 115/186/69 114/238/69 105/238/66 106/186/66
f 114/238/69 113/187/69 104/187/66 105/238/66
f 80/193/63 68/188/58 113/187/69 137/215/70
f 137/215/70 113/187/69 114/238/69 138/232/70
f 138/232/70 114/238/69 115/186/69 139/183/70
f 72/193/62 163/215/71 104/187/66 70/188/60
f 163/215/71 162/217/71 105/238/66 104/187/66
f 162/217/71 161/183/71 106/186/66 105/238/66
