# Blender 4.5.1 LTS
# www.blender.org
mtllib StarterRaft.mtl
o Cube.001
v -1.766215 0.192524 2.094831
v -1.766215 0.259057 2.094831
v -1.790272 0.192524 -2.127450
v -1.790272 0.259057 -2.127450
v -0.966167 0.192524 2.090273
v -0.966167 0.259057 2.090273
v -0.990223 0.192524 -2.132008
v -0.990223 0.259057 -2.132008
vn -1.0000 -0.0000 0.0057
vn -0.0057 -0.0000 -1.0000
vn 1.0000 -0.0000 -0.0057
vn 0.0057 -0.0000 1.0000
vn -0.0000 -1.0000 -0.0000
vn -0.0000 1.0000 -0.0000
vt 0.375000 0.000000
vt 0.625000 0.000000
vt 0.625000 0.250000
vt 0.375000 0.250000
vt 0.625000 0.500000
vt 0.375000 0.500000
vt 0.625000 0.750000
vt 0.375000 0.750000
vt 0.625000 1.000000
vt 0.375000 1.000000
vt 0.125000 0.500000
vt 0.125000 0.750000
vt 0.875000 0.500000
vt 0.875000 0.750000
s 1
usemtl Material.002
f 1/1/1 2/2/1 4/3/1 3/4/1
f 3/4/2 4/3/2 8/5/2 7/6/2
f 7/6/3 8/5/3 6/7/3 5/8/3
f 5/8/4 6/7/4 2/9/4 1/10/4
f 3/11/5 7/6/5 5/8/5 1/12/5
f 8/5/6 4/13/6 2/14/6 6/7/6
o Cube.002
v -2.644809 0.192524 2.094831
v -2.644809 0.259057 2.094831
v -2.668865 0.192524 -2.127450
v -2.668865 0.259057 -2.127450
v -1.844761 0.192524 2.090273
v -1.844761 0.259057 2.090273
v -1.868817 0.192524 -2.132008
v -1.868817 0.259057 -2.132008
vn -1.0000 -0.0000 0.0057
vn -0.0057 -0.0000 -1.0000
vn 1.0000 -0.0000 -0.0057
vn 0.0057 -0.0000 1.0000
vn -0.0000 -1.0000 -0.0000
vn -0.0000 1.0000 -0.0000
vt 0.375000 0.000000
vt 0.625000 0.000000
vt 0.625000 0.250000
vt 0.375000 0.250000
vt 0.625000 0.500000
vt 0.375000 0.500000
vt 0.625000 0.750000
vt 0.375000 0.750000
vt 0.625000 1.000000
vt 0.375000 1.000000
vt 0.125000 0.500000
vt 0.125000 0.750000
vt 0.875000 0.500000
vt 0.875000 0.750000
s 1
usemtl Material.005
f 9/15/7 10/16/7 12/17/7 11/18/7
f 11/18/8 12/17/8 16/19/8 15/20/8
f 15/20/9 16/19/9 14/21/9 13/22/9
f 13/22/10 14/21/10 10/23/10 9/24/10
f 11/25/11 15/20/11 13/22/11 9/26/11
f 16/19/12 12/27/12 10/28/12 14/21/12
o Cube.003
v -0.898341 0.192524 2.094831
v -0.898341 0.259057 2.094831
v -0.922398 0.192524 -2.127450
v -0.922398 0.259057 -2.127450
v -0.098293 0.192524 2.090273
v -0.098293 0.259057 2.090273
v -0.122349 0.192524 -2.132008
v -0.122349 0.259057 -2.132008
vn -1.0000 -0.0000 0.0057
vn -0.0057 -0.0000 -1.0000
vn 1.0000 -0.0000 -0.0057
vn 0.0057 -0.0000 1.0000
vn -0.0000 -1.0000 -0.0000
vn -0.0000 1.0000 -0.0000
vt 0.375000 0.000000
vt 0.625000 0.000000
vt 0.625000 0.250000
vt 0.375000 0.250000
vt 0.625000 0.500000
vt 0.375000 0.500000
vt 0.625000 0.750000
vt 0.375000 0.750000
vt 0.625000 1.000000
vt 0.375000 1.000000
vt 0.125000 0.500000
vt 0.125000 0.750000
vt 0.875000 0.500000
vt 0.875000 0.750000
s 1
usemtl Material.003
f 17/29/13 18/30/13 20/31/13 19/32/13
f 19/32/14 20/31/14 24/33/14 23/34/14
f 23/34/15 24/33/15 22/35/15 21/36/15
f 21/36/16 22/35/16 18/37/16 17/38/16
f 19/39/17 23/34/17 21/36/17 17/40/17
f 24/33/18 20/41/18 18/42/18 22/35/18
o Cube.004
v -0.027772 0.192524 2.094831
v -0.027772 0.259057 2.094831
v -0.051828 0.192524 -2.127450
v -0.051828 0.259057 -2.127450
v 0.772277 0.192524 2.090273
v 0.772277 0.259057 2.090273
v 0.748220 0.192524 -2.132008
v 0.748220 0.259057 -2.132008
vn -1.0000 -0.0000 0.0057
vn -0.0057 -0.0000 -1.0000
vn 1.0000 -0.0000 -0.0057
vn 0.0057 -0.0000 1.0000
vn -0.0000 -1.0000 -0.0000
vn -0.0000 1.0000 -0.0000
vt 0.375000 0.000000
vt 0.625000 0.000000
vt 0.625000 0.250000
vt 0.375000 0.250000
vt 0.625000 0.500000
vt 0.375000 0.500000
vt 0.625000 0.750000
vt 0.375000 0.750000
vt 0.625000 1.000000
vt 0.375000 1.000000
vt 0.125000 0.500000
vt 0.125000 0.750000
vt 0.875000 0.500000
vt 0.875000 0.750000
s 1
usemtl Material.004
f 25/43/19 26/44/19 28/45/19 27/46/19
f 27/46/20 28/45/20 32/47/20 31/48/20
f 31/48/21 32/47/21 30/49/21 29/50/21
f 29/50/22 30/49/22 26/51/22 25/52/22
f 27/53/23 31/48/23 29/50/23 25/54/23
f 32/47/24 28/55/24 26/56/24 30/49/24
o Cube.005
v -2.756092 0.284664 1.550414
v -2.756092 0.197095 1.550414
v 2.547973 0.284664 1.520193
v 2.547973 0.197095 1.520193
v -2.754882 0.284664 1.762660
v -2.754882 0.197095 1.762660
v 2.549182 0.284664 1.732439
v 2.549182 0.197095 1.732439
vn -0.0057 -0.0000 -1.0000
vn 1.0000 -0.0000 -0.0057
vn 0.0057 -0.0000 1.0000
vn -1.0000 -0.0000 0.0057
vn -0.0000 1.0000 -0.0000
vn -0.0000 -1.0000 -0.0000
vt 0.375000 0.000000
vt 0.375000 0.250000
vt 0.625000 0.250000
vt 0.625000 0.000000
vt 0.375000 0.500000
vt 0.625000 0.500000
vt 0.375000 0.750000
vt 0.625000 0.750000
vt 0.375000 1.000000
vt 0.625000 1.000000
vt 0.125000 0.500000
vt 0.125000 0.750000
vt 0.875000 0.750000
vt 0.875000 0.500000
s 1
usemtl Material.009
f 33/57/25 35/58/25 36/59/25 34/60/25
f 35/58/26 39/61/26 40/62/26 36/59/26
f 39/61/27 37/63/27 38/64/27 40/62/27
f 37/63/28 33/65/28 34/66/28 38/64/28
f 35/67/29 33/68/29 37/63/29 39/61/29
f 40/62/30 38/64/30 34/69/30 36/70/30
o Cube.006
v 1.694318 0.192524 2.094831
v 1.694318 0.259057 2.094831
v 1.670262 0.192524 -2.127450
v 1.670262 0.259057 -2.127450
v 2.494366 0.192524 2.090273
v 2.494366 0.259057 2.090273
v 2.470310 0.192524 -2.132008
v 2.470310 0.259057 -2.132008
vn -1.0000 -0.0000 0.0057
vn -0.0057 -0.0000 -1.0000
vn 1.0000 -0.0000 -0.0057
vn 0.0057 -0.0000 1.0000
vn -0.0000 -1.0000 -0.0000
vn -0.0000 1.0000 -0.0000
vt 0.375000 0.000000
vt 0.625000 0.000000
vt 0.625000 0.250000
vt 0.375000 0.250000
vt 0.625000 0.500000
vt 0.375000 0.500000
vt 0.625000 0.750000
vt 0.375000 0.750000
vt 0.625000 1.000000
vt 0.375000 1.000000
vt 0.125000 0.500000
vt 0.125000 0.750000
vt 0.875000 0.500000
vt 0.875000 0.750000
s 1
usemtl Material.006
f 41/71/31 42/72/31 44/73/31 43/74/31
f 43/74/32 44/73/32 48/75/32 47/76/32
f 47/76/33 48/75/33 46/77/33 45/78/33
f 45/78/34 46/77/34 42/79/34 41/80/34
f 43/81/35 47/76/35 45/78/35 41/82/35
f 48/75/36 44/83/36 42/84/36 46/77/36
o Cube.007
v 0.826444 0.192524 2.094831
v 0.826444 0.259057 2.094831
v 0.802387 0.192524 -2.127450
v 0.802387 0.259057 -2.127450
v 1.626492 0.192524 2.090273
v 1.626492 0.259057 2.090273
v 1.602436 0.192524 -2.132008
v 1.602436 0.259057 -2.132008
vn -1.0000 -0.0000 0.0057
vn -0.0057 -0.0000 -1.0000
vn 1.0000 -0.0000 -0.0057
vn 0.0057 -0.0000 1.0000
vn -0.0000 -1.0000 -0.0000
vn -0.0000 1.0000 -0.0000
vt 0.375000 0.000000
vt 0.625000 0.000000
vt 0.625000 0.250000
vt 0.375000 0.250000
vt 0.625000 0.500000
vt 0.375000 0.500000
vt 0.625000 0.750000
vt 0.375000 0.750000
vt 0.625000 1.000000
vt 0.375000 1.000000
vt 0.125000 0.500000
vt 0.125000 0.750000
vt 0.875000 0.500000
vt 0.875000 0.750000
s 1
usemtl Material.007
f 49/85/37 50/86/37 52/87/37 51/88/37
f 51/88/38 52/87/38 56/89/38 55/90/38
f 55/90/39 56/89/39 54/91/39 53/92/39
f 53/92/40 54/91/40 50/93/40 49/94/40
f 51/95/41 55/90/41 53/92/41 49/96/41
f 56/89/42 52/97/42 50/98/42 54/91/42
o Cube.014
v -0.157130 4.801022 -1.928957
v -0.157130 4.844754 -1.928957
v -0.134489 4.801022 2.044924
v -0.134489 4.844754 2.044924
v -0.250057 4.801022 -1.928428
v -0.250057 4.844754 -1.928428
v -0.227416 4.801022 2.045455
v -0.227416 4.844754 2.045455
vn 1.0000 -0.0000 -0.0057
vn 0.0057 -0.0000 1.0000
vn -1.0000 -0.0000 0.0057
vn -0.0057 -0.0000 -1.0000
vn -0.0000 -1.0000 -0.0000
vn -0.0000 1.0000 -0.0000
vt 0.375000 0.000000
vt 0.625000 0.000000
vt 0.625000 0.250000
vt 0.375000 0.250000
vt 0.625000 0.500000
vt 0.375000 0.500000
vt 0.625000 0.750000
vt 0.375000 0.750000
vt 0.625000 1.000000
vt 0.375000 1.000000
vt 0.125000 0.500000
vt 0.125000 0.750000
vt 0.875000 0.500000
vt 0.875000 0.750000
s 1
usemtl Material.244
f 57/99/43 58/100/43 60/101/43 59/102/43
f 59/102/44 60/101/44 64/103/44 63/104/44
f 63/104/45 64/103/45 62/105/45 61/106/45
f 61/106/46 62/105/46 58/107/46 57/108/46
f 59/109/47 63/104/47 61/106/47 57/110/47
f 64/103/48 60/111/48 58/112/48 62/105/48
o Cube.015
v -0.157130 2.010885 -1.928957
v -0.157130 2.054617 -1.928957
v -0.134489 2.010885 2.044926
v -0.134489 2.054617 2.044926
v -0.250057 2.010885 -1.928428
v -0.250057 2.054617 -1.928428
v -0.227416 2.010885 2.045456
v -0.227416 2.054617 2.045456
vn 1.0000 -0.0000 -0.0057
vn 0.0057 -0.0000 1.0000
vn -1.0000 -0.0000 0.0057
vn -0.0057 -0.0000 -1.0000
vn -0.0000 -1.0000 -0.0000
vn -0.0000 1.0000 -0.0000
vt 0.375000 0.000000
vt 0.625000 0.000000
vt 0.625000 0.250000
vt 0.375000 0.250000
vt 0.625000 0.500000
vt 0.375000 0.500000
vt 0.625000 0.750000
vt 0.375000 0.750000
vt 0.625000 1.000000
vt 0.375000 1.000000
vt 0.125000 0.500000
vt 0.125000 0.750000
vt 0.875000 0.500000
vt 0.875000 0.750000
s 1
usemtl Material.243
f 65/113/49 66/114/49 68/115/49 67/116/49
f 67/116/50 68/115/50 72/117/50 71/118/50
f 71/118/51 72/117/51 70/119/51 69/120/51
f 69/120/52 70/119/52 66/121/52 65/122/52
f 67/123/53 71/118/53 69/120/53 65/124/53
f 72/117/54 68/125/54 66/126/54 70/119/54
o Cube.036
v -2.756092 0.284664 -1.768501
v -2.756092 0.197095 -1.768501
v 2.547973 0.284664 -1.798722
v 2.547973 0.197095 -1.798722
v -2.754882 0.284664 -1.556255
v -2.754882 0.197095 -1.556255
v 2.549182 0.284664 -1.586475
v 2.549182 0.197095 -1.586475
vn -0.0057 -0.0000 -1.0000
vn 1.0000 -0.0000 -0.0057
vn 0.0057 -0.0000 1.0000
vn -1.0000 -0.0000 0.0057
vn -0.0000 1.0000 -0.0000
vn -0.0000 -1.0000 -0.0000
vt 0.375000 0.000000
vt 0.375000 0.250000
vt 0.625000 0.250000
vt 0.625000 0.000000
vt 0.375000 0.500000
vt 0.625000 0.500000
vt 0.375000 0.750000
vt 0.625000 0.750000
vt 0.375000 1.000000
vt 0.625000 1.000000
vt 0.125000 0.500000
vt 0.125000 0.750000
vt 0.875000 0.750000
vt 0.875000 0.500000
s 1
usemtl Material.222
f 73/127/55 75/128/55 76/129/55 74/130/55
f 75/128/56 79/131/56 80/132/56 76/129/56
f 79/131/57 77/133/57 78/134/57 80/132/57
f 77/133/58 73/135/58 74/136/58 78/134/58
f 75/137/59 73/138/59 77/133/59 79/131/59
f 80/132/60 78/134/60 74/139/60 76/140/60
o Cylinder
v -0.069039 5.222130 -0.067090
v -0.046637 5.222130 -0.061263
v -0.028937 5.222130 -0.046706
v 0.003828 0.185395 -0.093780
v 0.035144 0.185395 -0.025615
v -0.021375 5.222130 -0.022173
v -0.035898 5.222130 0.009440
v 0.008393 0.185395 0.043161
v -0.067633 0.185395 0.071238
v -0.071471 5.222130 0.020563
v -0.093873 5.222130 0.014736
v -0.111573 5.222130 0.000179
v -0.144338 0.185395 0.047253
v -0.175654 0.185395 -0.020912
v -0.119135 5.222130 -0.024354
v -0.104612 5.222130 -0.055967
v -0.148902 0.185395 -0.089688
v -0.072877 0.185395 -0.117765
vn 0.9221 0.0101 -0.3867
vn 0.6352 0.0113 -0.7723
vn 0.9248 0.0104 0.3802
vn 0.3314 0.0095 0.9434
vn -0.2880 0.0092 0.9576
vn -0.9221 0.0101 0.3867
vn -0.6352 0.0113 0.7723
vn -0.9248 0.0104 -0.3802
vn -0.0000 1.0000 -0.0000
vn -0.3314 0.0095 -0.9434
vn 0.2880 0.0092 -0.9576
vn -0.0000 -1.0000 -0.0000
vt 0.753903 0.500000
vt 0.880190 0.500000
vt 0.839652 1.000000
vt 0.746097 1.000000
vt 0.919067 1.000000
vt 0.630190 0.500000
vt 0.619810 1.000000
vt 0.503903 0.500000
vt 0.496097 1.000000
vt 0.380190 0.500000
vt 0.419067 1.000000
vt 0.253903 0.500000
vt 0.339652 1.000000
vt 0.246097 1.000000
vt 0.130190 0.500000
vt 0.119810 1.000000
vt 0.407645 0.081624
vt 0.487077 0.244152
vt 0.450248 0.376418
vt 0.366318 0.458649
vt 0.255848 0.487077
vt 0.092355 0.418376
vt 0.012924 0.255848
vt 0.049752 0.123582
vt 0.133682 0.041351
vt 0.244152 0.012924
vt 0.011857 0.500000
vt 0.012817 1.000000
vt 0.987183 0.500000
vt 0.988143 1.000000
vt 0.755848 0.012924
vt 0.592355 0.081624
vt 0.512923 0.244152
vt 0.581624 0.407645
vt 0.744152 0.487077
vt 0.907645 0.418376
vt 0.987076 0.255848
vt 0.918376 0.092355
s 1
usemtl Material.008
f 85/141/61 84/142/61 83/143/61 86/144/61
f 82/145/62 83/143/62 84/142/62
f 88/146/63 85/141/63 86/144/63 87/147/63
f 89/148/64 88/146/64 87/147/64 90/149/64
f 93/150/65 89/148/65 90/149/65 91/151/65
f 94/152/66 93/150/66 92/153/66 95/154/66
f 91/151/67 92/153/67 93/150/67
f 97/155/68 94/152/68 95/154/68 96/156/68
f 87/157/69 86/158/69 83/159/69 82/160/69 81/161/69 96/162/69 95/163/69 92/164/69 91/165/69 90/166/69
f 98/167/70 97/155/70 96/156/70 81/168/70
f 84/142/71 98/169/71 81/170/71 82/145/71
f 89/171/72 93/172/72 94/173/72 97/174/72 98/175/72 84/176/72 85/177/72 88/178/72
o Cylinder.001
v 2.656800 -0.300824 1.730197
v -2.877657 -0.290542 1.346586
v 2.673728 -0.348005 1.484492
v 2.651993 -0.232754 1.283334
v -2.869859 0.021676 1.314034
v 2.673375 -0.017483 1.274266
v -2.845363 0.206228 1.482750
v 2.680919 0.192538 1.451322
v -2.873740 0.201371 1.882879
v 2.623772 0.225070 1.759151
v -2.867014 -0.110879 1.915354
v 2.690161 -0.013048 1.926221
v -2.845118 -0.295536 1.746396
vn 0.0034 -0.8675 -0.4974
vn 0.0159 0.5772 0.8164
vn 0.9999 0.0163 0.0032
vn -1.0000 0.0023 0.0052
vn -0.0091 -0.0782 -0.9969
vn -0.0064 -0.9978 0.0654
vn -0.0017 0.6591 -0.7520
vn -0.0015 0.9992 -0.0392
vn 0.0055 -0.6114 0.7913
vn -0.0038 0.1034 0.9946
vt 0.796328 0.989006
vt 0.753490 0.510994
vt 0.876837 0.510994
vt 0.296328 0.989006
vt 0.174044 0.510994
vt 0.346080 0.510994
vt 0.747267 0.477847
vt 0.906095 0.422648
vt 0.977899 0.252806
vt 0.922648 0.093905
vt 0.744704 0.023962
vt 0.561593 0.120341
vt 0.550071 0.348980
vt 0.456206 0.309691
vt 0.252806 0.477899
vt 0.093999 0.422729
vt 0.043794 0.190309
vt 0.247194 0.022101
vt 0.406001 0.077271
vt 0.626837 0.510994
vt 0.623045 0.989006
vt 0.969496 0.510994
vt 0.976068 0.989006
vt 0.499642 0.510994
vt 0.496510 0.989006
vt 0.022062 0.510994
vt 0.123045 0.989006
vt 0.029009 0.989006
s 1
usemtl Material.001
f 100/179/73 102/180/73 101/181/73
f 107/182/74 110/183/74 108/184/74
f 99/185/75 101/186/75 102/187/75 104/188/75 106/189/75 108/190/75 110/191/75
f 100/192/76 111/193/76 109/194/76 107/195/76 105/196/76 103/197/76
f 104/198/77 102/180/77 100/179/77 103/199/77
f 101/181/78 99/200/78 111/201/78 100/179/78
f 106/202/79 104/198/79 103/199/79 105/203/79
f 108/184/80 106/202/80 105/203/80 107/182/80
f 99/204/81 110/183/81 109/205/81 111/206/81
f 107/182/82 109/205/82 110/183/82
o Cylinder.004
v 2.644154 -0.308319 -1.569510
v -2.890303 -0.274553 -1.951771
v 2.661082 -0.340357 -1.817645
v 2.639347 -0.212999 -2.011363
v -2.882505 0.039072 -1.965133
v 2.660729 0.002423 -2.007225
v -2.858009 0.212940 -1.785426
v 2.668273 0.201202 -1.817634
v -2.886386 0.183577 -1.386347
v 2.611126 0.214812 -1.508390
v -2.879660 -0.130077 -1.373063
v 2.677516 -0.033095 -1.356224
v -2.857764 -0.304034 -1.553018
vn 0.0034 -0.8354 -0.5496
vn 0.0159 0.5261 0.8502
vn 0.9999 0.0161 0.0042
vn -1.0000 0.0019 0.0054
vn -0.0091 -0.0169 -0.9998
vn -0.0064 -1.0000 0.0041
vn -0.0017 0.7040 -0.7102
vn -0.0015 0.9998 0.0221
vn 0.0055 -0.6588 0.7523
vn -0.0038 0.0422 0.9991
vt 0.796328 0.989006
vt 0.753490 0.510994
vt 0.876837 0.510994
vt 0.296328 0.989006
vt 0.174044 0.510994
vt 0.346080 0.510994
vt 0.747267 0.477847
vt 0.906095 0.422648
vt 0.977899 0.252806
vt 0.922648 0.093905
vt 0.744704 0.023962
vt 0.561593 0.120341
vt 0.550071 0.348980
vt 0.456206 0.309691
vt 0.252806 0.477899
vt 0.093999 0.422729
vt 0.043794 0.190309
vt 0.247194 0.022101
vt 0.406001 0.077271
vt 0.626837 0.510994
vt 0.623045 0.989006
vt 0.969496 0.510994
vt 0.976068 0.989006
vt 0.499642 0.510994
vt 0.496510 0.989006
vt 0.022062 0.510994
vt 0.123045 0.989006
vt 0.029009 0.989006
s 1
usemtl Material.202
f 113/207/83 115/208/83 114/209/83
f 120/210/84 123/211/84 121/212/84
f 112/213/85 114/214/85 115/215/85 117/216/85 119/217/85 121/218/85 123/219/85
f 113/220/86 124/221/86 122/222/86 120/223/86 118/224/86 116/225/86
f 117/226/87 115/208/87 113/207/87 116/227/87
f 114/209/88 112/228/88 124/229/88 113/207/88
f 119/230/89 117/226/89 116/227/89 118/231/89
f 121/212/90 119/230/90 118/231/90 120/210/90
f 112/232/91 123/211/91 122/233/91 124/234/91
f 120/210/92 122/233/92 123/211/92
o Sail2
v -0.265499 4.804864 -1.906514
v -0.265499 2.068692 -1.906514
v -0.243362 4.804864 1.978875
v -0.243362 2.068692 1.978875
v -0.254534 4.804864 0.017981
v -0.317919 3.436778 -1.906216
v -0.254430 2.068692 0.036180
v -0.309612 3.436778 1.979252
v -0.668221 3.436778 0.038538
v -0.259965 4.722775 -0.935167
v -0.310657 2.752735 -1.906257
v -0.248896 2.130286 1.007528
v -0.282747 4.120821 1.979099
v -0.248896 4.721259 1.007528
v -0.300343 4.120821 -1.906316
v -0.259964 2.132853 -0.935167
v -0.310859 2.752735 1.979260
v -0.662687 3.436778 1.009885
v -0.673755 3.436778 -0.932809
v -0.561280 4.120821 0.037929
v -0.609678 2.752735 0.038204
v -0.615212 2.752735 -0.933143
v -0.566815 4.120821 -0.933419
v -0.555746 4.120821 1.009276
v -0.604144 2.752735 1.009552
vn -0.9426 -0.3052 0.1354
vn -0.9475 0.0928 0.3059
vn -0.9880 0.1545 0.0056
vn -0.8781 -0.4784 -0.0108
vn -0.9963 -0.0853 0.0057
vn -0.9460 -0.0454 -0.3209
vn -0.9471 -0.2906 -0.1361
vn -0.9025 0.4304 -0.0132
vn -0.9598 0.2548 -0.1180
vn -0.9490 0.0862 -0.3034
vn -0.9578 0.2584 0.1263
vn -0.9019 0.4312 0.0235
vn -0.9479 -0.0398 0.3160
vn -0.8783 -0.4777 0.0201
vt 0.750000 0.750000
vt 1.000000 0.750000
vt 1.000000 1.000000
vt 0.750000 1.000000
vt 0.250000 0.750000
vt 0.500000 0.750000
vt 0.500000 1.000000
vt 0.250000 1.000000
vt 0.250000 0.250000
vt 0.500000 0.250000
vt 0.500000 0.500000
vt 0.250000 0.500000
vt 0.750000 0.250000
vt 1.000000 0.250000
vt 1.000000 0.500000
vt 0.750000 0.500000
vt 0.500000 0.000000
vt 0.750000 0.000000
vt 1.000000 0.000000
vt 0.000000 0.250000
vt 0.000000 0.500000
vt 0.000000 0.000000
vt 0.250000 0.000000
vt 0.000000 0.750000
vt 0.000000 1.000000
s 1
usemtl Material.200
f 149/235/93 136/236/93 128/237/93 141/238/93
f 148/239/94 142/240/94 132/241/94 137/242/94
f 147/243/95 143/244/95 133/245/95 144/246/95
f 146/247/96 140/248/96 131/249/96 145/250/96
f 143/244/97 146/247/97 145/250/97 133/245/97
f 130/251/98 135/252/98 146/247/98 143/244/98
f 135/252/99 126/253/99 140/248/99 146/247/99
f 134/254/100 147/243/100 144/246/100 129/255/100
f 125/256/101 139/257/101 147/243/101 134/254/101
f 139/257/102 130/251/102 143/244/102 147/243/102
f 138/258/103 148/239/103 137/242/103 127/259/103
f 129/255/104 144/246/104 148/239/104 138/258/104
f 144/246/95 133/245/95 142/240/95 148/239/95
f 142/240/105 149/235/105 141/238/105 132/241/105
f 133/245/97 145/250/97 149/235/97 142/240/97
f 145/250/106 131/249/106 136/236/106 149/235/106
